<?xml version="1.0" encoding="utf-8"?>
<!-- Generator: Adobe Illustrator 15.0.0, SVG Export Plug-In . SVG Version: 6.00 Build 0)  -->
<!DOCTYPE svg PUBLIC "-//W3C//DTD SVG 1.1//EN" "http://www.w3.org/Graphics/SVG/1.1/DTD/svg11.dtd">
<svg version="1.1"
	 id="Layer_1" xmlns:dc="http://purl.org/dc/elements/1.1/" xmlns:cc="http://creativecommons.org/ns#" xmlns:rdf="http://www.w3.org/1999/02/22-rdf-syntax-ns#" xmlns:svg="http://www.w3.org/2000/svg" xmlns:sodipodi="http://sodipodi.sourceforge.net/DTD/sodipodi-0.dtd" xmlns:inkscape="http://www.inkscape.org/namespaces/inkscape" inkscape:version="0.48.1 " sodipodi:docname="precip.svg"
	 xmlns="http://www.w3.org/2000/svg" xmlns:xlink="http://www.w3.org/1999/xlink" x="0px" y="0px" width="106.671px"
	 height="106.671px" viewBox="0 0 106.671 106.671" enable-background="new 0 0 106.671 106.671" xml:space="preserve">
<sodipodi:namedview  id="namedview21" objecttolerance="10" fit-margin-left="0" gridtolerance="10" guidetolerance="10" inkscape:zoom="0.33377281" pagecolor="#ffffff" showgrid="false" bordercolor="#666666" borderopacity="1" inkscape:cx="54.100001" inkscape:cy="53.313001" fit-margin-top="0" inkscape:pageopacity="0" inkscape:pageshadow="2" inkscape:window-width="1680" inkscape:window-height="960" fit-margin-right="0" fit-margin-bottom="0" inkscape:window-x="-4" inkscape:window-y="-4" inkscape:current-layer="Layer_1" inkscape:window-maximized="1">
	</sodipodi:namedview>
<g id="g3" transform="translate(-243.54001,-367.587)">
	<path id="path7" inkscape:connector-curvature="0" d="M283.957,385.84c-4.738-4.738-20.237-5.891-20.237-5.891
		s2.148,14.4,6.938,19.19c3.946,3.946,10.123,4.169,13.796,0.496C288.126,395.963,287.904,389.787,283.957,385.84L283.957,385.84z"
		/>
	<path id="path9" inkscape:connector-curvature="0" d="M274.362,415.404c-4.738-4.738-20.238-5.892-20.238-5.892
		s2.149,14.403,6.938,19.192c3.947,3.945,10.124,4.168,13.797,0.495C278.531,425.527,278.309,419.35,274.362,415.404
		L274.362,415.404z"/>
	<path id="path11" inkscape:connector-curvature="0" d="M318.967,389.99c-4.738-4.739-20.237-5.892-20.237-5.892
		s2.147,14.4,6.938,19.19c3.945,3.946,10.123,4.169,13.795,0.496C323.136,400.113,322.915,393.936,318.967,389.99L318.967,389.99z"
		/>
	<path id="path13" inkscape:connector-curvature="0" d="M305.481,416.441c-4.738-4.738-20.237-5.892-20.237-5.892
		s2.148,14.403,6.938,19.191c3.946,3.946,10.123,4.169,13.796,0.496C309.65,426.564,309.429,420.388,305.481,416.441
		L305.481,416.441z"/>
	<path id="path15" inkscape:connector-curvature="0" d="M292.77,442.633c-4.738-4.737-20.238-5.893-20.238-5.893
		s2.149,14.402,6.939,19.191c3.946,3.947,10.123,4.168,13.796,0.496C296.938,452.756,296.716,446.581,292.77,442.633L292.77,442.633
		z"/>
	<path id="path17" inkscape:connector-curvature="0" d="M337.639,419.553c-4.738-4.739-20.238-5.892-20.238-5.892
		s2.148,14.401,6.939,19.191c3.945,3.945,10.123,4.168,13.796,0.496C341.808,429.676,341.586,423.501,337.639,419.553
		L337.639,419.553z"/>
	<path id="path19" inkscape:connector-curvature="0" d="M327.784,448.079c-4.738-4.738-20.238-5.891-20.238-5.891
		s2.149,14.4,6.939,19.189c3.946,3.946,10.123,4.17,13.796,0.496C331.954,458.202,331.73,452.026,327.784,448.079L327.784,448.079z"
		/>
</g>
</svg>
